<svg xmlns="http://www.w3.org/2000/svg" xmlns:svg="http://www.w3.org/2000/svg" width="130.77718mm" height="91.955666mm" viewBox="0 0 130.77718 91.955666" version="1.1" id="svg1" xml:space="preserve" transform="matrix(1, 0, 0, 1, 0, 0)"><defs id="defs1" fill="#ffffff"/><g id="layer1" transform="translate(-24.944535,-74.383848)"><path style="fill:#ffffff" d="m 106.13685,166.25754 -0.25605,-0.0498 -0.11936,-0.14383 -0.11936,-0.14382 -0.0442,-21.33916 -0.0442,-21.33917 -0.19574,-1.4699 -0.19574,-1.46991 -0.2339,-1.09343 -0.2339,-1.09342 -0.35607,-1.15387 -0.35607,-1.15387 v -0.14865 -0.14865 l -0.31196,-0.72026 -0.31196,-0.72026 -0.38738,-0.88194 -0.38738,-0.88195 -0.75122,-1.35231 -0.75121,-1.35232 -0.38621,-0.64676 -0.38621,-0.64676 -0.800543,-1.06541 -0.80054,-1.0654 -1.44904,-1.5432 -1.44903,-1.5432 -0.57215,-0.4488 -0.57214,-0.4488 -0.75104,-0.62496 -0.75104,-0.62495 -1.08747,-0.69409 -1.08746,-0.694096 -0.64676,-0.38008 -0.64676,-0.38008 -0.88194,-0.39574 -0.88195,-0.39573 -0.99953,-0.41734 -0.99954,-0.41733 -0.52917,-0.16995 -0.52916,-0.16996 -1.5875,-0.40815 -1.5875,-0.40814 -0.76436,-0.1152 -0.76435,-0.11519 -1.41111,-0.17296 -1.41111,-0.17297 -1.76389,0.001 -1.76389,0.001 -1.35231,0.1707 -1.35232,0.17069 -0.76435,0.10778 -0.76435,0.10778 -0.94074,0.26081 -0.94074,0.26081 -0.35278,0.0986 -0.35278,0.0986 -0.65515,0.16613 -0.65516,0.16612 -1.6377,0.72744 -1.63769,0.72743 -0.94095,0.52565 -0.94094,0.52564 -0.76435,0.476976 -0.76435,0.47697 -0.64676,0.48169 -0.64676,0.4817 -1.23472,1.03487 -1.23473,1.03488 -1.31925,1.46705 -1.31926,1.46706 -0.984831,1.38723 -0.984834,1.38722 -0.540415,0.94074 -0.540414,0.94075 -0.704287,1.4699 -0.704288,1.46991 -0.494188,1.41111 -0.494189,1.41111 -0.334231,1.52871 -0.334232,1.5287 -0.13131,0.55754 -0.13131,0.55755 -0.08874,1.55912 -0.08874,1.55912 0.09644,0.26459 0.09644,0.26458 0.502679,0.002 0.502679,0.002 14.128181,0.0278 14.12819,0.0278 0.24751,0.22401 0.24751,0.22401 v 10.01772 10.01771 l -0.2217,0.20064 -0.22169,0.20063 -25.122333,0.006 -25.12233,0.006 -0.181324,-0.15049 -0.181325,-0.15049 0.05182,-12.17939 0.05182,-12.1794 0.17835,-1.29351 0.17835,-1.29352 0.126208,-0.70556 0.126208,-0.70555 0.184069,-1.11713 0.184069,-1.11713 0.301664,-1.17593 0.301664,-1.17593 0.403289,-1.4699 0.403289,-1.46991 0.363208,-0.99954 0.363208,-0.99954 0.412681,-1.05833 0.412682,-1.05833 0.560733,-1.17593 0.560733,-1.17592 0.620066,-1.29068 0.620067,-1.29068 0.586385,-0.943576 0.586385,-0.94358 0.259622,-0.41158 0.259621,-0.41157 0.339984,-0.56198 0.339984,-0.56198 0.411574,-0.57084 0.411575,-0.57084 0.734953,-0.95445 0.734954,-0.95444 0.701115,-0.91135 0.701116,-0.91134 2.032912,-2.05908 2.032912,-2.05908 1.365083,-1.17472 1.365083,-1.174712 0.673123,-0.470371 0.673123,-0.47037 1.182972,-0.862819 1.182972,-0.862819 1.835303,-1.055875 1.835304,-1.055876 1.528705,-0.742833 1.5287,-0.742834 1.02351,-0.478217 1.02351,-0.478218 1.03436,-0.35423 1.03436,-0.35423 0.99954,-0.364545 0.99954,-0.364546 2.76342,-0.693156 2.76343,-0.693156 1.23472,-0.189621 1.23472,-0.189621 0.76436,-0.109299 0.76435,-0.1093 1.17592,-0.11373 1.17593,-0.11373 3.175,-0.0031 3.175,-0.0031 0.99954,0.121619 0.99953,0.121618 1.17593,0.103818 1.17592,0.103818 0.88195,0.176713 0.88194,0.176713 0.94074,0.190584 0.94074,0.190583 1.17593,0.29791 1.17593,0.297909 2.05787,0.649552 2.05787,0.649552 1.82268,0.76798 1.82269,0.767981 1.05833,0.512303 1.05833,0.512303 1.314897,0.735806 1.31489,0.735805 0.98397,0.59697 0.98397,0.596969 1.17012,0.874106 1.17012,0.874106 0.76435,0.544665 0.76435,0.544666 0.29398,0.321139 0.29398,0.32113 0.60924,0.45366 0.60923,0.45365 1.43697,1.38401 1.43698,1.384 1.13229,1.29352 1.1323,1.29352 0.72395,0.88316 0.72395,0.88315 0.94394,1.29231 0.94394,1.29231 0.57627,0.94074 0.57626,0.94074 0.78153,1.27071 0.78152,1.270706 0.16116,0.37558 0.16116,0.37559 0.65042,1.35232 0.65043,1.35231 0.70262,1.76389 0.70261,1.76389 0.37876,1.23472 0.37876,1.23472 0.27386,0.88195 0.27387,0.88194 0.31999,1.52871 0.31999,1.5287 0.0873,0.52917 0.0873,0.52916 0.12401,0.70556 0.12402,0.70556 0.12985,0.94074 0.12986,0.94074 0.15581,2.93981 0.15581,2.93982 0.005,8.23148 0.005,8.23148 0.008,1.37332 0.008,1.37331 0.18479,0.18479 0.18479,0.18479 h 14.15189 14.15189 l 0.18601,0.0714 0.186,0.0714 v 10.37676 10.37675 l -1.0764,0.0764 -1.07639,0.0764 -23.58865,-0.016 -23.58865,-0.016 z" id="path1"/></g></svg>